<svg xmlns="http://www.w3.org/2000/svg" height="16" width="16" viewBox="0 0 512 512"><!--!Font Awesome Free 6.5.1 by @fontawesome - https://fontawesome.com License - https://fontawesome.com/license/free Copyright 2023 Fonticons, Inc.--><path opacity="1" fill="#ffffff" d="M304 416h-64a16 16 0 0 0 -16 16v32a16 16 0 0 0 16 16h64a16 16 0 0 0 16-16v-32a16 16 0 0 0 -16-16zm-128-64h-48V48a16 16 0 0 0 -16-16H80a16 16 0 0 0 -16 16v304H16c-14.2 0-21.4 17.2-11.3 27.3l80 96a16 16 0 0 0 22.6 0l80-96C197.4 369.3 190.2 352 176 352zm256-192H240a16 16 0 0 0 -16 16v32a16 16 0 0 0 16 16h192a16 16 0 0 0 16-16v-32a16 16 0 0 0 -16-16zm-64 128H240a16 16 0 0 0 -16 16v32a16 16 0 0 0 16 16h128a16 16 0 0 0 16-16v-32a16 16 0 0 0 -16-16zM496 32H240a16 16 0 0 0 -16 16v32a16 16 0 0 0 16 16h256a16 16 0 0 0 16-16V48a16 16 0 0 0 -16-16z"/></svg>